<svg width="153" height="68" viewBox="0 0 153 68" fill="none" xmlns="http://www.w3.org/2000/svg">
<path d="M28.0341 21.3425C21.1919 30.4489 7.42081 45.1233 6.65222 45.482H19.7789C19.7963 45.4586 23.3561 40.5233 27.4851 34.7364H41.7646L39.1151 45.482H47.6591L57.2087 6.68854H50.6785C41.6174 6.70312 36.0435 11.3204 28.0341 21.3425ZM43.3481 28.3663H32.0245C33.6425 26.0824 35.1854 23.8919 36.4741 22.0367C42.2704 13.7034 47.454 14.5056 47.454 14.5056L43.3481 28.3663Z" fill="#113A72"/>
<path d="M123.517 43.1421C121.49 45.2022 119.389 45.7049 116.233 45.7049H107.733C104.759 45.7049 103.217 45.0918 102.063 43.9146C99.9143 41.7567 99.5256 38.1884 101.565 29.8014C103.605 21.4142 104.929 19.3419 106.58 17.613C108.62 15.5653 110.757 15.1606 113.95 15.1606H122.376C125.351 15.1606 126.941 15.7738 128.107 16.9386C130.256 19.109 130.632 22.6159 128.605 31.0642C126.601 39.2429 125.205 41.4747 123.517 43.1421ZM108.814 38.6911C109.154 39.0222 109.761 39.1326 111.133 39.1326H115.322C116.755 39.1326 117.24 39.0222 117.75 38.5317C118.26 38.0412 118.794 36.9621 120.397 30.402C121.878 24.1239 121.878 22.6772 121.332 22.1254C121.004 21.7943 120.397 21.6717 119.025 21.6717H114.776C113.343 21.6717 112.857 21.7943 112.347 22.2848C111.837 22.7753 111.352 23.8421 109.761 30.402C108.207 36.631 108.268 38.1393 108.814 38.6911Z" fill="#113A72"/>
<path d="M30.3565 49.2721H84.0391L81.8708 57.5213H22.8391L30.3565 49.2721Z" fill="#E63C2D"/>
<path d="M86.1015 45.6441L91.0724 25.5767C91.3975 24.138 91.3975 23.1383 90.8438 22.5896C90.5757 22.341 90.2558 22.157 89.9076 22.0514C89.5595 21.9458 89.1925 21.9215 88.8338 21.9801H88.1477C86.5709 21.9801 85.4755 22.3702 82.6348 23.7601C82.5266 24.3088 82.4182 24.9792 82.2497 25.5279L77.3148 45.6441H68.8892L73.8484 25.5767C74.1732 24.138 74.1732 23.1383 73.6318 22.5896C73.3592 22.3444 73.0368 22.1627 72.6874 22.0574C72.3381 21.9521 71.97 21.9257 71.6095 21.9801H70.9596C69.4309 21.9801 68.2874 22.3702 65.4469 23.7601L60.0906 45.7049H51.6652L59.2602 15.2382H67.5532L66.5181 19.3833C71.3328 15.8477 72.5364 15.1894 75.2564 15.1894H76.8332C77.6945 15.1135 78.5617 15.2218 79.3786 15.5075C80.1957 15.7932 80.9443 16.2497 81.5756 16.8475C82.3319 17.6802 82.7787 18.7534 82.8395 19.8832C88.292 15.8478 89.556 15.1894 92.4687 15.1894H94.0455C94.9181 15.1045 95.7986 15.2084 96.6288 15.4942C97.4587 15.7801 98.2193 16.2414 98.8601 16.8475C100.449 18.4446 100.605 21.3218 99.5701 25.5279L94.5511 45.6441H86.1015Z" fill="#113A72"/>
<path d="M94.9281 49.2498H87.8886C87.7005 49.2498 87.6183 49.3207 87.583 49.498L87.2539 50.916C87.2187 51.105 87.301 51.1996 87.489 51.1996H89.8982L88.5114 57.2377C88.4644 57.4268 88.5584 57.5213 88.7465 57.5213H90.38C90.5681 57.5213 90.6386 57.4386 90.6738 57.2614L92.0723 51.1996H94.5285C94.7166 51.1996 94.7871 51.1168 94.8341 50.9396L95.1632 49.5216C95.1984 49.3326 95.1162 49.2498 94.9281 49.2498ZM93.6256 57.5213H95.1534C95.3414 57.5213 95.412 57.4386 95.4472 57.2614L96.2581 53.7401C96.3639 53.3029 96.4814 53.2083 96.881 53.2083H98.9964C99.1844 53.2083 99.2432 53.1256 99.2902 52.9484L99.6192 51.5304C99.6545 51.3413 99.5722 51.2586 99.3842 51.2586H98.303C97.4568 51.2586 97.022 51.5895 96.74 52.1212H96.6342L96.7517 51.5895C96.787 51.4004 96.7047 51.3177 96.5167 51.3177H94.9889C94.8008 51.3177 94.7303 51.3886 94.6951 51.5659L93.3906 57.2377C93.3436 57.4268 93.4376 57.5213 93.6256 57.5213ZM101.274 57.5804H102.026C102.861 57.5804 103.284 57.2495 103.589 56.706H103.695L103.566 57.2377C103.53 57.4268 103.613 57.5213 103.801 57.5213H105.34C105.528 57.5213 105.599 57.4386 105.634 57.2614L106.939 51.5895C106.974 51.4004 106.892 51.3177 106.704 51.3177H105.164C104.976 51.3177 104.917 51.3886 104.87 51.5659L104.024 55.2408C103.93 55.678 103.813 55.7725 103.413 55.7725H102.355C101.932 55.7725 101.791 55.6189 101.897 55.1699L102.72 51.5895C102.755 51.4004 102.673 51.3177 102.485 51.3177H100.957C100.769 51.3177 100.698 51.3886 100.663 51.5659L99.7228 55.6189C99.4407 56.8714 99.9813 57.5804 101.274 57.5804ZM109.065 57.5804H111.592C112.932 57.5804 113.449 57.0723 113.766 55.7252L113.86 55.2998C113.907 55.1108 113.813 55.0162 113.625 55.0162H112.05C111.862 55.0162 111.792 55.099 111.745 55.2762L111.709 55.4298C111.615 55.867 111.498 55.9616 111.098 55.9616H110.099C109.676 55.9616 109.547 55.8079 109.653 55.3589L110.099 53.3974C110.193 52.9602 110.311 52.8657 110.71 52.8657H111.709C112.132 52.8657 112.262 53.0193 112.179 53.3974L112.144 53.5392C112.109 53.7164 112.203 53.811 112.391 53.811H113.966C114.154 53.811 114.224 53.7283 114.26 53.551L114.342 53.2083C114.624 51.9558 114.083 51.2586 112.791 51.2586H110.264C108.924 51.2586 108.407 51.7549 108.09 53.102L107.514 55.6189C107.22 56.8714 107.772 57.5804 109.065 57.5804ZM121.985 51.3177H120.375C120.258 51.3177 120.14 51.3768 120.011 51.5304L118.424 53.4447H117.802L118.707 49.5216C118.742 49.3326 118.66 49.2498 118.471 49.2498H116.944C116.756 49.2498 116.673 49.3207 116.638 49.498L114.864 57.2377C114.817 57.4268 114.911 57.5213 115.099 57.5213H116.626C116.814 57.5213 116.885 57.4386 116.92 57.2614L117.414 55.1226H118.236L118.977 57.2968C119.036 57.4622 119.106 57.5213 119.294 57.5213H120.845C121.116 57.5213 121.198 57.3559 121.104 57.1077L120.082 54.2364L122.197 51.7313C122.338 51.554 122.303 51.3177 121.985 51.3177ZM123.881 50.5496H125.538C125.726 50.5496 125.796 50.4669 125.843 50.2897L126.09 49.1671C126.137 48.9781 126.043 48.8954 125.855 48.8954H124.21C124.022 48.8954 123.951 48.9663 123.904 49.1435L123.646 50.2661C123.611 50.4551 123.693 50.5496 123.881 50.5496ZM122.341 57.5213H123.881C124.069 57.5213 124.139 57.4386 124.175 57.2614L125.479 51.5895C125.514 51.4004 125.432 51.3177 125.244 51.3177H123.705C123.516 51.3177 123.458 51.3886 123.411 51.5659L122.106 57.2377C122.071 57.4268 122.153 57.5213 122.341 57.5213ZM126.036 57.5213H127.564C127.752 57.5213 127.822 57.4386 127.857 57.2614L128.704 53.5865C128.798 53.1493 128.927 53.0547 129.327 53.0547H130.384C130.796 53.0547 130.937 53.2083 130.831 53.6574L130.008 57.2377C129.973 57.4268 130.055 57.5213 130.243 57.5213H131.783C131.971 57.5213 132.041 57.4386 132.077 57.2614L133.005 53.2083C133.299 51.9558 132.746 51.2586 131.454 51.2586H130.713C129.879 51.2586 129.432 51.5895 129.15 52.1212H129.044L129.162 51.5895C129.197 51.4004 129.115 51.3177 128.927 51.3177H127.399C127.211 51.3177 127.141 51.3886 127.105 51.5659L125.801 57.2377C125.754 57.4268 125.848 57.5213 126.036 57.5213ZM135.063 59.8255H137.46C138.812 59.8255 139.329 59.3292 139.634 57.9822L141.092 51.5895C141.139 51.4004 141.045 51.3177 140.856 51.3177H136.626C135.274 51.3177 134.757 51.814 134.452 53.1611L133.993 55.158C133.699 56.4224 134.252 57.1196 135.545 57.1196H136.297C137.119 57.1196 137.566 56.7887 137.86 56.2452H137.965L137.578 57.9467C137.472 58.3839 137.354 58.4903 136.955 58.4903H135.944C135.639 58.4903 135.498 58.3721 135.568 58.0412L135.592 57.9113C135.639 57.7104 135.545 57.6277 135.356 57.6277H133.782C133.594 57.6277 133.523 57.7104 133.488 57.8876L133.429 58.1003C133.159 59.2701 133.711 59.8255 135.063 59.8255ZM136.567 55.548C136.144 55.548 136.015 55.3944 136.12 54.9453L136.461 53.4092C136.567 52.972 136.684 52.8775 137.084 52.8775H138.741L138.236 55.0162C138.142 55.4535 138.024 55.548 137.625 55.548H136.567Z" fill="#113A72"/>
<path d="M131.826 45.7049C131.826 45.7049 129.241 43.9566 130.122 38.3068L137.945 6.68854H146.348L138.8 37.3742C137.91 42.4998 140.092 44.7842 140.953 45.4717C140.953 45.4717 141.046 45.5446 141.008 45.6262C140.97 45.7078 140.909 45.6992 140.86 45.7049H131.826Z" fill="#113A72"/>
</svg>
